<mxfile host="app.diagrams.net" agent="Mozilla/5.0 (Windows NT 10.0; Win64; x64) AppleWebKit/537.36 (KHTML, like Gecko) Chrome/128.0.0.0 Safari/537.36" version="24.7.10">
  <diagram name="第 1 页" id="nXlBeoLmZDWUBnlcILY9">
    <mxGraphModel dx="2128" dy="922" grid="0" gridSize="10" guides="1" tooltips="1" connect="1" arrows="1" fold="1" page="0" pageScale="1" pageWidth="827" pageHeight="1169" math="1" shadow="0">
      <root>
        <mxCell id="0" />
        <mxCell id="1" parent="0" />
        <mxCell id="0fx10O7DeUbAbGrjflrV-1" value="" style="rounded=0;whiteSpace=wrap;html=1;fillColor=#A9B8C6;" vertex="1" parent="1">
          <mxGeometry x="506.86" y="436.14" width="155.14" height="31.86" as="geometry" />
        </mxCell>
        <mxCell id="0fx10O7DeUbAbGrjflrV-2" value="&lt;span style=&quot;forced-color-adjust: none; color: rgb(0, 0, 0); font-family: Helvetica; font-size: 12px; font-style: normal; font-variant-ligatures: normal; font-variant-caps: normal; font-weight: 400; letter-spacing: normal; orphans: 2; text-align: left; text-indent: 0px; text-transform: none; widows: 2; word-spacing: 0px; -webkit-text-stroke-width: 0px; white-space: normal; text-decoration-thickness: initial; text-decoration-style: initial; text-decoration-color: initial; float: none; display: inline !important; background-color: rgb(169, 184, 198);&quot;&gt;输出：系统状态估计&lt;/span&gt;" style="text;whiteSpace=wrap;html=1;opacity=0;" vertex="1" parent="1">
          <mxGeometry x="514.08" y="436.14" width="132.42" height="28.86" as="geometry" />
        </mxCell>
        <mxCell id="0fx10O7DeUbAbGrjflrV-3" value="" style="rounded=1;whiteSpace=wrap;html=1;fillColor=#bac8d3;strokeColor=#23445d;" vertex="1" parent="1">
          <mxGeometry x="161.5" y="202" width="130" height="25" as="geometry" />
        </mxCell>
        <mxCell id="0fx10O7DeUbAbGrjflrV-4" value="" style="rounded=1;whiteSpace=wrap;html=1;fillColor=#f9f7ed;strokeColor=#36393d;" vertex="1" parent="1">
          <mxGeometry x="-11" y="240" width="473" height="166" as="geometry" />
        </mxCell>
        <mxCell id="0fx10O7DeUbAbGrjflrV-5" value="" style="rounded=0;whiteSpace=wrap;html=1;fillColor=#A9B8C6;" vertex="1" parent="1">
          <mxGeometry x="405" y="474.5" width="149" height="32.5" as="geometry" />
        </mxCell>
        <mxCell id="0fx10O7DeUbAbGrjflrV-6" value="" style="rounded=1;whiteSpace=wrap;html=1;fillColor=#d0cee2;strokeColor=#56517e;" vertex="1" parent="1">
          <mxGeometry x="560" y="247.75" width="214" height="140" as="geometry" />
        </mxCell>
        <mxCell id="0fx10O7DeUbAbGrjflrV-7" value="" style="rounded=1;whiteSpace=wrap;html=1;fillColor=#d5e8d4;strokeColor=#82b366;" vertex="1" parent="1">
          <mxGeometry x="579.08" y="305.25" width="171" height="26" as="geometry" />
        </mxCell>
        <mxCell id="0fx10O7DeUbAbGrjflrV-8" value="" style="rounded=1;whiteSpace=wrap;html=1;fillColor=#dae8fc;strokeColor=#6c8ebf;" vertex="1" parent="1">
          <mxGeometry x="579.08" y="358.25" width="171" height="26" as="geometry" />
        </mxCell>
        <mxCell id="0fx10O7DeUbAbGrjflrV-9" style="edgeStyle=orthogonalEdgeStyle;rounded=0;orthogonalLoop=1;jettySize=auto;html=1;entryX=-0.005;entryY=0.628;entryDx=0;entryDy=0;entryPerimeter=0;strokeColor=#6C8EBF;" edge="1" parent="1" source="0fx10O7DeUbAbGrjflrV-10" target="0fx10O7DeUbAbGrjflrV-44">
          <mxGeometry relative="1" as="geometry">
            <mxPoint x="95" y="534" as="targetPoint" />
            <Array as="points">
              <mxPoint x="863" y="346" />
              <mxPoint x="863" y="424" />
              <mxPoint x="-25" y="424" />
              <mxPoint x="-25" y="287" />
            </Array>
          </mxGeometry>
        </mxCell>
        <mxCell id="0fx10O7DeUbAbGrjflrV-10" value="" style="rounded=0;whiteSpace=wrap;html=1;fillColor=#dae8fc;strokeColor=#6c8ebf;" vertex="1" parent="1">
          <mxGeometry x="593.58" y="334.25" width="137" height="21" as="geometry" />
        </mxCell>
        <mxCell id="0fx10O7DeUbAbGrjflrV-11" value="" style="rounded=1;whiteSpace=wrap;html=1;fillColor=#eeeeee;strokeColor=#36393d;" vertex="1" parent="1">
          <mxGeometry x="494.15" y="94.13999999999999" width="287.42" height="79.78" as="geometry" />
        </mxCell>
        <mxCell id="0fx10O7DeUbAbGrjflrV-12" value="" style="rounded=0;whiteSpace=wrap;html=1;fillColor=#fad9d5;strokeColor=#ae4132;" vertex="1" parent="1">
          <mxGeometry x="506.5" y="133.35" width="141" height="32" as="geometry" />
        </mxCell>
        <mxCell id="0fx10O7DeUbAbGrjflrV-13" value="" style="rounded=0;whiteSpace=wrap;html=1;fillColor=#fad9d5;strokeColor=#ae4132;" vertex="1" parent="1">
          <mxGeometry x="656.5" y="133.35" width="116.42" height="32" as="geometry" />
        </mxCell>
        <mxCell id="0fx10O7DeUbAbGrjflrV-14" value="" style="rounded=1;whiteSpace=wrap;html=1;fillColor=#eeeeee;strokeColor=#36393d;" vertex="1" parent="1">
          <mxGeometry x="50" y="93" width="291" height="71" as="geometry" />
        </mxCell>
        <mxCell id="0fx10O7DeUbAbGrjflrV-15" value="" style="rounded=0;whiteSpace=wrap;html=1;fillColor=#bac8d3;strokeColor=#23445d;" vertex="1" parent="1">
          <mxGeometry x="64" y="124" width="104" height="32" as="geometry" />
        </mxCell>
        <mxCell id="0fx10O7DeUbAbGrjflrV-16" value="" style="rounded=0;whiteSpace=wrap;html=1;fillColor=#bac8d3;strokeColor=#23445d;" vertex="1" parent="1">
          <mxGeometry x="230" y="124" width="104" height="32" as="geometry" />
        </mxCell>
        <mxCell id="0fx10O7DeUbAbGrjflrV-17" value="" style="rounded=1;whiteSpace=wrap;html=1;fillColor=#f5f5f5;fontColor=#333333;strokeColor=#666666;" vertex="1" parent="1">
          <mxGeometry x="-4" y="316" width="229" height="29" as="geometry" />
        </mxCell>
        <mxCell id="0fx10O7DeUbAbGrjflrV-18" value="" style="rounded=1;whiteSpace=wrap;html=1;fillColor=#b0e3e6;strokeColor=#0e8088;" vertex="1" parent="1">
          <mxGeometry x="156" y="375.5" width="297" height="22.5" as="geometry" />
        </mxCell>
        <mxCell id="0fx10O7DeUbAbGrjflrV-19" value="" style="rounded=1;whiteSpace=wrap;html=1;fillColor=#e1d5e7;strokeColor=#9673a6;" vertex="1" parent="1">
          <mxGeometry x="245" y="297.5" width="215" height="26" as="geometry" />
        </mxCell>
        <mxCell id="0fx10O7DeUbAbGrjflrV-20" style="edgeStyle=orthogonalEdgeStyle;rounded=0;orthogonalLoop=1;jettySize=auto;html=1;exitX=1;exitY=0.5;exitDx=0;exitDy=0;strokeColor=#0E8088;entryX=-0.005;entryY=0.545;entryDx=0;entryDy=0;entryPerimeter=0;" edge="1" parent="1" source="0fx10O7DeUbAbGrjflrV-21" target="0fx10O7DeUbAbGrjflrV-10">
          <mxGeometry relative="1" as="geometry">
            <mxPoint x="588" y="345" as="targetPoint" />
            <Array as="points">
              <mxPoint x="388" y="346" />
            </Array>
          </mxGeometry>
        </mxCell>
        <mxCell id="0fx10O7DeUbAbGrjflrV-21" value="" style="rounded=0;whiteSpace=wrap;html=1;fillColor=#b0e3e6;strokeColor=#0e8088;" vertex="1" parent="1">
          <mxGeometry x="268" y="330" width="120" height="35" as="geometry" />
        </mxCell>
        <mxCell id="0fx10O7DeUbAbGrjflrV-22" style="edgeStyle=orthogonalEdgeStyle;rounded=0;orthogonalLoop=1;jettySize=auto;html=1;fillColor=#e1d5e7;strokeColor=#9673A6;entryX=-0.001;entryY=0.336;entryDx=0;entryDy=0;entryPerimeter=0;" edge="1" parent="1" source="0fx10O7DeUbAbGrjflrV-23" target="0fx10O7DeUbAbGrjflrV-35">
          <mxGeometry relative="1" as="geometry">
            <Array as="points">
              <mxPoint x="521" y="279" />
            </Array>
          </mxGeometry>
        </mxCell>
        <mxCell id="0fx10O7DeUbAbGrjflrV-23" value="" style="rounded=0;whiteSpace=wrap;html=1;fillColor=#e1d5e7;strokeColor=#9673a6;" vertex="1" parent="1">
          <mxGeometry x="268" y="263" width="120" height="32" as="geometry" />
        </mxCell>
        <mxCell id="0fx10O7DeUbAbGrjflrV-24" value="" style="rounded=0;whiteSpace=wrap;html=1;fillColor=#f5f5f5;strokeColor=#666666;fontColor=#333333;" vertex="1" parent="1">
          <mxGeometry x="46" y="269.5" width="104" height="32" as="geometry" />
        </mxCell>
        <mxCell id="0fx10O7DeUbAbGrjflrV-25" value="测量" style="text;html=1;align=center;verticalAlign=middle;whiteSpace=wrap;rounded=0;" vertex="1" parent="1">
          <mxGeometry x="61" y="89.78" width="60" height="30" as="geometry" />
        </mxCell>
        <mxCell id="0fx10O7DeUbAbGrjflrV-26" value="输入：&lt;div&gt;测量不确定性&lt;/div&gt;" style="text;html=1;align=center;verticalAlign=middle;whiteSpace=wrap;rounded=0;" vertex="1" parent="1">
          <mxGeometry x="66" y="125" width="94" height="30" as="geometry" />
        </mxCell>
        <mxCell id="0fx10O7DeUbAbGrjflrV-27" value="输入：&lt;div&gt;测量值&lt;/div&gt;" style="text;html=1;align=center;verticalAlign=middle;whiteSpace=wrap;rounded=0;" vertex="1" parent="1">
          <mxGeometry x="230" y="124" width="91" height="30" as="geometry" />
        </mxCell>
        <mxCell id="0fx10O7DeUbAbGrjflrV-28" value="步骤1" style="rhombus;whiteSpace=wrap;html=1;fillColor=#f9f7ed;strokeColor=#36393d;" vertex="1" parent="1">
          <mxGeometry x="301" y="78" width="79" height="30.57" as="geometry" />
        </mxCell>
        <mxCell id="0fx10O7DeUbAbGrjflrV-29" value="初始化" style="text;html=1;align=center;verticalAlign=middle;whiteSpace=wrap;rounded=0;" vertex="1" parent="1">
          <mxGeometry x="505.78" y="96.57" width="60" height="30" as="geometry" />
        </mxCell>
        <mxCell id="0fx10O7DeUbAbGrjflrV-30" value="输入：&lt;div&gt;估计不确定性的初始猜测&lt;/div&gt;" style="text;html=1;align=center;verticalAlign=middle;whiteSpace=wrap;rounded=0;" vertex="1" parent="1">
          <mxGeometry x="506.5" y="134.35" width="135" height="30" as="geometry" />
        </mxCell>
        <mxCell id="0fx10O7DeUbAbGrjflrV-31" value="输入：&lt;div&gt;系统状态的初始猜测&lt;/div&gt;" style="text;html=1;align=center;verticalAlign=middle;whiteSpace=wrap;rounded=0;" vertex="1" parent="1">
          <mxGeometry x="656.5" y="134.35" width="120" height="30" as="geometry" />
        </mxCell>
        <mxCell id="0fx10O7DeUbAbGrjflrV-32" value="步骤0" style="rhombus;whiteSpace=wrap;html=1;fillColor=#f9f7ed;strokeColor=#36393d;" vertex="1" parent="1">
          <mxGeometry x="748.9999999999999" y="80.57" width="64" height="28" as="geometry" />
        </mxCell>
        <mxCell id="0fx10O7DeUbAbGrjflrV-33" value="预测" style="text;html=1;align=center;verticalAlign=middle;whiteSpace=wrap;rounded=0;" vertex="1" parent="1">
          <mxGeometry x="556" y="243" width="60" height="30" as="geometry" />
        </mxCell>
        <mxCell id="0fx10O7DeUbAbGrjflrV-34" style="edgeStyle=orthogonalEdgeStyle;rounded=0;orthogonalLoop=1;jettySize=auto;html=1;exitX=1;exitY=0.5;exitDx=0;exitDy=0;entryX=0.539;entryY=0.025;entryDx=0;entryDy=0;entryPerimeter=0;strokeColor=#82B366;" edge="1" parent="1" source="0fx10O7DeUbAbGrjflrV-35" target="0fx10O7DeUbAbGrjflrV-23">
          <mxGeometry relative="1" as="geometry">
            <mxPoint x="611" y="207" as="targetPoint" />
            <Array as="points">
              <mxPoint x="731" y="286" />
              <mxPoint x="862" y="286" />
              <mxPoint x="862" y="207" />
              <mxPoint x="333" y="207" />
            </Array>
          </mxGeometry>
        </mxCell>
        <mxCell id="0fx10O7DeUbAbGrjflrV-35" value="利用系统动态模型计算下一次迭代的预测状态" style="text;html=1;align=center;verticalAlign=middle;whiteSpace=wrap;rounded=0;fillColor=#d5e8d4;strokeColor=#82b366;" vertex="1" parent="1">
          <mxGeometry x="590.58" y="269.25" width="140" height="30" as="geometry" />
        </mxCell>
        <mxCell id="0fx10O7DeUbAbGrjflrV-36" value="外推估计不确定性" style="text;html=1;align=center;verticalAlign=middle;whiteSpace=wrap;rounded=0;" vertex="1" parent="1">
          <mxGeometry x="601.94" y="331.25" width="120" height="30" as="geometry" />
        </mxCell>
        <mxCell id="0fx10O7DeUbAbGrjflrV-37" value="步骤3" style="rhombus;whiteSpace=wrap;html=1;fillColor=#f9f7ed;strokeColor=#36393d;" vertex="1" parent="1">
          <mxGeometry x="735" y="227" width="78" height="41" as="geometry" />
        </mxCell>
        <mxCell id="0fx10O7DeUbAbGrjflrV-38" value="更新" style="text;html=1;align=center;verticalAlign=middle;whiteSpace=wrap;rounded=0;" vertex="1" parent="1">
          <mxGeometry x="-10" y="240.5" width="60" height="30" as="geometry" />
        </mxCell>
        <mxCell id="0fx10O7DeUbAbGrjflrV-39" value="使用状态更新方程估计当前状态" style="text;html=1;align=center;verticalAlign=middle;whiteSpace=wrap;rounded=0;" vertex="1" parent="1">
          <mxGeometry x="276.5" y="265" width="96" height="30" as="geometry" />
        </mxCell>
        <mxCell id="0fx10O7DeUbAbGrjflrV-40" value="更新当前估计不确定性" style="text;html=1;align=center;verticalAlign=middle;whiteSpace=wrap;rounded=0;" vertex="1" parent="1">
          <mxGeometry x="291.5" y="332.5" width="81" height="30" as="geometry" />
        </mxCell>
        <mxCell id="0fx10O7DeUbAbGrjflrV-41" value="步骤2" style="rhombus;whiteSpace=wrap;html=1;fillColor=#f9f7ed;strokeColor=#36393d;" vertex="1" parent="1">
          <mxGeometry x="422" y="218" width="80" height="45" as="geometry" />
        </mxCell>
        <mxCell id="0fx10O7DeUbAbGrjflrV-43" style="edgeStyle=orthogonalEdgeStyle;rounded=0;orthogonalLoop=1;jettySize=auto;html=1;entryX=-0.009;entryY=0.534;entryDx=0;entryDy=0;entryPerimeter=0;strokeColor=#666666;" edge="1" parent="1">
          <mxGeometry relative="1" as="geometry">
            <mxPoint x="150" y="293" as="sourcePoint" />
            <mxPoint x="267.99999999999983" y="347.48999999999995" as="targetPoint" />
            <Array as="points">
              <mxPoint x="236.08" y="292.8" />
              <mxPoint x="236.08" y="347.8" />
            </Array>
          </mxGeometry>
        </mxCell>
        <mxCell id="0fx10O7DeUbAbGrjflrV-44" value="计算卡尔曼增益" style="text;html=1;align=center;verticalAlign=middle;whiteSpace=wrap;rounded=0;" vertex="1" parent="1">
          <mxGeometry x="46" y="268" width="102.5" height="30" as="geometry" />
        </mxCell>
        <mxCell id="0fx10O7DeUbAbGrjflrV-45" value="$$P_{k/k}=(I-K_{k}H)P_{k/k-1}(I-K_{k}H)^{T}+K_{k}R_{k}K_{k}^{T}$$" style="text;whiteSpace=wrap;" vertex="1" parent="1">
          <mxGeometry x="156" y="360.5" width="293" height="44" as="geometry" />
        </mxCell>
        <mxCell id="0fx10O7DeUbAbGrjflrV-46" value="$$K_{k}=P_{k/k-1}H^{T}(HP_{k/k-1}{H}^{T}+R_{k})^{-1}$$" style="text;whiteSpace=wrap;" vertex="1" parent="1">
          <mxGeometry x="-4" y="301.5" width="224" height="36" as="geometry" />
        </mxCell>
        <mxCell id="0fx10O7DeUbAbGrjflrV-47" value="$$Z_k=H\times X_{k}+v_k$$" style="text;whiteSpace=wrap;" vertex="1" parent="1">
          <mxGeometry x="164" y="188" width="120" height="36" as="geometry" />
        </mxCell>
        <mxCell id="0fx10O7DeUbAbGrjflrV-48" value="$$\hat{X}_{k/k}={{\hat{X}_{k/k-1}+K_{k}(Z_{k}-H\hat{X}_{k/k-1})}}$$" style="text;whiteSpace=wrap;" vertex="1" parent="1">
          <mxGeometry x="243" y="282" width="190" height="36" as="geometry" />
        </mxCell>
        <mxCell id="0fx10O7DeUbAbGrjflrV-49" value="$${{P_{k+1/k}=FP_{k,k}F^{T}+Q}}$$" style="text;whiteSpace=wrap;" vertex="1" parent="1">
          <mxGeometry x="599.08" y="348.25" width="140" height="36" as="geometry" />
        </mxCell>
        <mxCell id="0fx10O7DeUbAbGrjflrV-50" value="$$\hat{X}_{k+1/k}=F\hat{X}_{k,k}+Gu_{k}$$" style="text;whiteSpace=wrap;" vertex="1" parent="1">
          <mxGeometry x="593.3000000000001" y="291.25" width="137.28" height="36" as="geometry" />
        </mxCell>
        <mxCell id="0fx10O7DeUbAbGrjflrV-51" value="$$P_{0/0}$$" style="text;whiteSpace=wrap;" vertex="1" parent="1">
          <mxGeometry x="580" y="164" width="54.84" height="35.86" as="geometry" />
        </mxCell>
        <mxCell id="0fx10O7DeUbAbGrjflrV-52" value="$$\hat{X}_{0/0}$$" style="text;html=1;align=center;verticalAlign=middle;resizable=0;points=[];autosize=1;strokeColor=none;fillColor=none;" vertex="1" parent="1">
          <mxGeometry x="660.5" y="176" width="112" height="26" as="geometry" />
        </mxCell>
        <mxCell id="0fx10O7DeUbAbGrjflrV-53" value="&lt;span style=&quot;color: rgb(0, 0, 0); font-family: Helvetica; font-size: 12px; font-style: normal; font-variant-ligatures: normal; font-variant-caps: normal; font-weight: 400; letter-spacing: normal; orphans: 2; text-align: left; text-indent: 0px; text-transform: none; widows: 2; word-spacing: 0px; -webkit-text-stroke-width: 0px; white-space: normal; background-color: rgb(251, 251, 251); text-decoration-thickness: initial; text-decoration-style: initial; text-decoration-color: initial; display: inline !important; float: none;&quot;&gt;$$Z_k$$&lt;/span&gt;" style="text;whiteSpace=wrap;html=1;" vertex="1" parent="1">
          <mxGeometry x="266.5" y="164" width="25" height="36" as="geometry" />
        </mxCell>
        <mxCell id="0fx10O7DeUbAbGrjflrV-54" value="&lt;span style=&quot;color: rgb(0, 0, 0); font-family: Helvetica; font-size: 12px; font-style: normal; font-variant-ligatures: normal; font-variant-caps: normal; font-weight: 400; letter-spacing: normal; orphans: 2; text-align: left; text-indent: 0px; text-transform: none; widows: 2; word-spacing: 0px; -webkit-text-stroke-width: 0px; white-space: normal; background-color: rgb(251, 251, 251); text-decoration-thickness: initial; text-decoration-style: initial; text-decoration-color: initial; display: inline !important; float: none;&quot;&gt;$$R_k$$&lt;/span&gt;" style="text;whiteSpace=wrap;html=1;" vertex="1" parent="1">
          <mxGeometry x="74.5" y="174" width="25" height="36" as="geometry" />
        </mxCell>
        <mxCell id="0fx10O7DeUbAbGrjflrV-55" value="$$K_k$$" style="text;html=1;align=center;verticalAlign=middle;resizable=0;points=[];autosize=1;strokeColor=none;fillColor=none;" vertex="1" parent="1">
          <mxGeometry x="174" y="256" width="65" height="26" as="geometry" />
        </mxCell>
        <mxCell id="0fx10O7DeUbAbGrjflrV-56" value="&lt;span style=&quot;color: rgb(0, 0, 0); font-family: Helvetica; font-size: 12px; font-style: normal; font-variant-ligatures: normal; font-variant-caps: normal; font-weight: 400; letter-spacing: normal; orphans: 2; text-align: left; text-indent: 0px; text-transform: none; widows: 2; word-spacing: 0px; -webkit-text-stroke-width: 0px; white-space: normal; background-color: rgb(251, 251, 251); text-decoration-thickness: initial; text-decoration-style: initial; text-decoration-color: initial; display: inline !important; float: none;&quot;&gt;$$P_{k/k}$$&lt;/span&gt;" style="text;html=1;align=center;verticalAlign=middle;resizable=0;points=[];autosize=1;strokeColor=none;fillColor=none;" vertex="1" parent="1">
          <mxGeometry x="439" y="321.5" width="83" height="26" as="geometry" />
        </mxCell>
        <mxCell id="0fx10O7DeUbAbGrjflrV-57" value="&lt;span style=&quot;color: rgb(0, 0, 0); font-family: Helvetica; font-size: 12px; font-style: normal; font-variant-ligatures: normal; font-variant-caps: normal; font-weight: 400; letter-spacing: normal; orphans: 2; text-align: left; text-indent: 0px; text-transform: none; widows: 2; word-spacing: 0px; -webkit-text-stroke-width: 0px; white-space: normal; background-color: rgb(251, 251, 251); text-decoration-thickness: initial; text-decoration-style: initial; text-decoration-color: initial; display: inline !important; float: none;&quot;&gt;$$\hat{X}_{k/k}$$&lt;/span&gt;" style="text;html=1;align=center;verticalAlign=middle;resizable=0;points=[];autosize=1;strokeColor=none;fillColor=none;" vertex="1" parent="1">
          <mxGeometry x="442" y="253" width="111" height="26" as="geometry" />
        </mxCell>
        <mxCell id="0fx10O7DeUbAbGrjflrV-58" value="&lt;span style=&quot;color: rgb(0, 0, 0); font-family: Helvetica; font-size: 12px; font-style: normal; font-variant-ligatures: normal; font-variant-caps: normal; font-weight: 400; letter-spacing: normal; orphans: 2; text-align: left; text-indent: 0px; text-transform: none; widows: 2; word-spacing: 0px; -webkit-text-stroke-width: 0px; white-space: normal; background-color: rgb(251, 251, 251); text-decoration-thickness: initial; text-decoration-style: initial; text-decoration-color: initial; display: inline !important; float: none;&quot;&gt;$$P_{k/k-1}$$&lt;/span&gt;" style="text;html=1;align=center;verticalAlign=middle;resizable=0;points=[];autosize=1;strokeColor=none;fillColor=none;" vertex="1" parent="1">
          <mxGeometry x="781.57" y="375.75" width="93" height="26" as="geometry" />
        </mxCell>
        <mxCell id="0fx10O7DeUbAbGrjflrV-59" value="&lt;span style=&quot;color: rgb(0, 0, 0); font-family: Helvetica; font-size: 12px; font-style: normal; font-variant-ligatures: normal; font-variant-caps: normal; font-weight: 400; letter-spacing: normal; orphans: 2; text-align: left; text-indent: 0px; text-transform: none; widows: 2; word-spacing: 0px; -webkit-text-stroke-width: 0px; white-space: normal; background-color: rgb(251, 251, 251); text-decoration-thickness: initial; text-decoration-style: initial; text-decoration-color: initial; display: inline !important; float: none;&quot;&gt;$$P_{k,k}$$&lt;/span&gt;" style="text;html=1;align=center;verticalAlign=middle;resizable=0;points=[];autosize=1;strokeColor=none;fillColor=none;" vertex="1" parent="1">
          <mxGeometry x="491" y="474.5" width="83" height="26" as="geometry" />
        </mxCell>
        <mxCell id="0fx10O7DeUbAbGrjflrV-60" value="&lt;div&gt;&lt;br&gt;&lt;/div&gt;" style="text;html=1;align=center;verticalAlign=middle;resizable=0;points=[];autosize=1;strokeColor=none;fillColor=none;" vertex="1" parent="1">
          <mxGeometry x="625" y="445.14" width="18" height="26" as="geometry" />
        </mxCell>
        <mxCell id="0fx10O7DeUbAbGrjflrV-61" value="&lt;span style=&quot;color: rgb(0, 0, 0); font-family: Helvetica; font-size: 12px; font-style: normal; font-variant-ligatures: normal; font-variant-caps: normal; font-weight: 400; letter-spacing: normal; orphans: 2; text-align: left; text-indent: 0px; text-transform: none; widows: 2; word-spacing: 0px; -webkit-text-stroke-width: 0px; white-space: normal; background-color: rgb(251, 251, 251); text-decoration-thickness: initial; text-decoration-style: initial; text-decoration-color: initial; display: inline !important; float: none;&quot;&gt;$$\hat{X}_{k,k}$$&lt;/span&gt;" style="text;whiteSpace=wrap;html=1;" vertex="1" parent="1">
          <mxGeometry x="628.86" y="424" width="29" height="37.14" as="geometry" />
        </mxCell>
        <mxCell id="0fx10O7DeUbAbGrjflrV-62" value="输出：估计不确定性" style="text;html=1;align=center;verticalAlign=middle;resizable=0;points=[];autosize=1;strokeColor=none;fillColor=none;" vertex="1" parent="1">
          <mxGeometry x="402" y="474.5" width="126" height="26" as="geometry" />
        </mxCell>
        <mxCell id="0fx10O7DeUbAbGrjflrV-63" value="单步迭代延迟" style="rounded=0;whiteSpace=wrap;html=1;fillColor=#d0cee2;strokeColor=#56517e;" vertex="1" parent="1">
          <mxGeometry x="838.6500000000001" y="266.25" width="48" height="100.5" as="geometry" />
        </mxCell>
        <mxCell id="0fx10O7DeUbAbGrjflrV-64" value="&lt;span style=&quot;color: rgb(0, 0, 0); font-family: Helvetica; font-size: 12px; font-style: normal; font-variant-ligatures: normal; font-variant-caps: normal; font-weight: 400; letter-spacing: normal; orphans: 2; text-align: left; text-indent: 0px; text-transform: none; widows: 2; word-spacing: 0px; -webkit-text-stroke-width: 0px; white-space: normal; background-color: rgb(251, 251, 251); text-decoration-thickness: initial; text-decoration-style: initial; text-decoration-color: initial; display: inline !important; float: none;&quot;&gt;$$\hat{X}_{k/k-1}$$&lt;/span&gt;" style="text;html=1;align=center;verticalAlign=middle;resizable=0;points=[];autosize=1;strokeColor=none;fillColor=none;" vertex="1" parent="1">
          <mxGeometry x="781.5699999999999" y="239" width="121" height="26" as="geometry" />
        </mxCell>
        <mxCell id="0fx10O7DeUbAbGrjflrV-65" value="" style="endArrow=classic;html=1;rounded=0;exitX=0.374;exitY=1.002;exitDx=0;exitDy=0;exitPerimeter=0;" edge="1" parent="1" source="0fx10O7DeUbAbGrjflrV-15">
          <mxGeometry width="50" height="50" relative="1" as="geometry">
            <mxPoint x="102.77999999999997" y="121.38000000000002" as="sourcePoint" />
            <mxPoint x="102" y="269" as="targetPoint" />
          </mxGeometry>
        </mxCell>
        <mxCell id="0fx10O7DeUbAbGrjflrV-66" value="" style="endArrow=classic;html=1;rounded=0;entryX=0.228;entryY=0.018;entryDx=0;entryDy=0;entryPerimeter=0;exitX=0.632;exitY=1.008;exitDx=0;exitDy=0;exitPerimeter=0;" edge="1" parent="1" source="0fx10O7DeUbAbGrjflrV-16" target="0fx10O7DeUbAbGrjflrV-23">
          <mxGeometry width="50" height="50" relative="1" as="geometry">
            <mxPoint x="296" y="157" as="sourcePoint" />
            <mxPoint x="267.72" y="278.12" as="targetPoint" />
          </mxGeometry>
        </mxCell>
        <mxCell id="0fx10O7DeUbAbGrjflrV-67" value="" style="endArrow=classic;html=1;rounded=0;exitX=0.381;exitY=0.963;exitDx=0;exitDy=0;exitPerimeter=0;strokeColor=#0E8088;entryX=0.549;entryY=-0.006;entryDx=0;entryDy=0;entryPerimeter=0;" edge="1" parent="1">
          <mxGeometry width="50" height="50" relative="1" as="geometry">
            <mxPoint x="469.0010000000003" y="346.69800000000004" as="sourcePoint" />
            <mxPoint x="469.31399999999996" y="474.50399999999985" as="targetPoint" />
          </mxGeometry>
        </mxCell>
        <mxCell id="0fx10O7DeUbAbGrjflrV-68" value="" style="endArrow=classic;html=1;rounded=0;strokeColor=#9673A6;entryX=0.17;entryY=-0.02;entryDx=0;entryDy=0;entryPerimeter=0;" edge="1" parent="1">
          <mxGeometry width="50" height="50" relative="1" as="geometry">
            <mxPoint x="533" y="280" as="sourcePoint" />
            <mxPoint x="533.5913999999998" y="436.1399999999999" as="targetPoint" />
          </mxGeometry>
        </mxCell>
        <mxCell id="0fx10O7DeUbAbGrjflrV-69" value="" style="endArrow=classic;html=1;rounded=0;entryX=0;entryY=0.75;entryDx=0;entryDy=0;strokeColor=#6C8EBF;" edge="1" parent="1" target="0fx10O7DeUbAbGrjflrV-21">
          <mxGeometry width="50" height="50" relative="1" as="geometry">
            <mxPoint x="83" y="424" as="sourcePoint" />
            <mxPoint x="131" y="514" as="targetPoint" />
            <Array as="points">
              <mxPoint x="83" y="356" />
            </Array>
          </mxGeometry>
        </mxCell>
        <mxCell id="0fx10O7DeUbAbGrjflrV-70" value="" style="endArrow=none;dashed=1;html=1;rounded=0;entryX=0.001;entryY=0.793;entryDx=0;entryDy=0;entryPerimeter=0;" edge="1" parent="1" target="0fx10O7DeUbAbGrjflrV-63">
          <mxGeometry width="50" height="50" relative="1" as="geometry">
            <mxPoint x="863" y="367" as="sourcePoint" />
            <mxPoint x="838.6500000000001" y="344.9999999999998" as="targetPoint" />
            <Array as="points">
              <mxPoint x="863" y="346" />
            </Array>
          </mxGeometry>
        </mxCell>
        <mxCell id="0fx10O7DeUbAbGrjflrV-71" value="" style="endArrow=none;dashed=1;html=1;rounded=0;exitX=0.007;exitY=0.198;exitDx=0;exitDy=0;exitPerimeter=0;entryX=0.486;entryY=0;entryDx=0;entryDy=0;entryPerimeter=0;" edge="1" parent="1" source="0fx10O7DeUbAbGrjflrV-63" target="0fx10O7DeUbAbGrjflrV-63">
          <mxGeometry width="50" height="50" relative="1" as="geometry">
            <mxPoint x="838.6480000000004" y="285.34549999999996" as="sourcePoint" />
            <mxPoint x="861.4000000000001" y="266.25049999999993" as="targetPoint" />
            <Array as="points">
              <mxPoint x="862" y="286" />
            </Array>
          </mxGeometry>
        </mxCell>
        <mxCell id="0fx10O7DeUbAbGrjflrV-72" value="" style="endArrow=none;dashed=1;html=1;rounded=0;exitX=0.17;exitY=-0.015;exitDx=0;exitDy=0;exitPerimeter=0;entryX=0.786;entryY=1.003;entryDx=0;entryDy=0;entryPerimeter=0;" edge="1" parent="1" target="0fx10O7DeUbAbGrjflrV-30">
          <mxGeometry width="50" height="50" relative="1" as="geometry">
            <mxPoint x="613.1600000000001" y="267.99999999999994" as="sourcePoint" />
            <mxPoint x="613" y="191" as="targetPoint" />
          </mxGeometry>
        </mxCell>
        <mxCell id="0fx10O7DeUbAbGrjflrV-73" value="" style="endArrow=none;dashed=1;html=1;rounded=0;entryX=0.321;entryY=1.018;entryDx=0;entryDy=0;entryPerimeter=0;" edge="1" parent="1" target="0fx10O7DeUbAbGrjflrV-31">
          <mxGeometry width="50" height="50" relative="1" as="geometry">
            <mxPoint x="695" y="267" as="sourcePoint" />
            <mxPoint x="694.6599999999999" y="150.89000000000007" as="targetPoint" />
          </mxGeometry>
        </mxCell>
        <mxCell id="0fx10O7DeUbAbGrjflrV-75" style="edgeStyle=orthogonalEdgeStyle;rounded=0;orthogonalLoop=1;jettySize=auto;html=1;entryX=0.005;entryY=0.47;entryDx=0;entryDy=0;entryPerimeter=0;exitX=1;exitY=0.422;exitDx=0;exitDy=0;exitPerimeter=0;strokeColor=#666666;" edge="1" parent="1" source="0fx10O7DeUbAbGrjflrV-24" target="0fx10O7DeUbAbGrjflrV-23">
          <mxGeometry relative="1" as="geometry">
            <mxPoint x="151" y="283" as="sourcePoint" />
          </mxGeometry>
        </mxCell>
      </root>
    </mxGraphModel>
  </diagram>
</mxfile>
